#!OML:ASF F:\VICON\USERDATA\INSTALL\Justin_Nancy\Justin_Nancy.ASF
:FULLY-SPECIFIED
:DEGREES
50
root -8.46933 17.1881 -23.265 -2.14569 -8.61943 1.59626
lowerback 7.79579 3.0125 -1.5981
upperback -0.357898 3.90454 0.806512
thorax -4.90478 1.98137 1.26408
lowerneck -14.8462 -4.01319 -10.8688
upperneck 22.5096 -4.39988 6.19874
head 9.99848 -2.27412 3.42852
rclavicle -6.70339e-014 7.95139e-016
rhumerus -27.0795 -13.1149 -79.0262
rradius 36.6042
rwrist 2.07249
rhand -17.3985 13.0389
rfingers 7.12502
rthumb 8.85085 -16.7555
lclavicle -6.70339e-014 7.95139e-016
lhumerus -41.1257 17.2943 79.4116
lradius 18.7618
lwrist -13.1918
lhand -14.9903 22.8108
lfingers 7.12502
lthumb 11.1741 52.4932
rfemur -5.80711 0.97076 16.4165
rtibia 68.647
rfoot 7.96227 0.424984
rtoes 11.5158
lfemur -22.1467 -5.41912 -26.4977
ltibia 33.5226
lfoot -6.31492 -1.49578
ltoes 0.403593
51
root -8.46382 17.2057 -23.0247 -2.19491 -8.40286 2.12582
lowerback 7.51147 2.86421 -1.99649
upperback -0.259872 3.66677 0.620643
thorax -4.6463 1.86951 1.34061
lowerneck -15.0218 -3.85994 -10.8687
upperneck 22.9137 -4.19869 6.28036
head 10.1582 -2.17519 3.4915
rclavicle -4.61118e-014 -3.97569e-016
rhumerus -27.0125 -13.7244 -79.1498
rradius 35.65
rwrist 2.8992
rhand -16.928 13.615
rfingers 7.12502
rthumb 9.30477 -16.1596
lclavicle -4.61118e-014 -3.97569e-016
lhumerus -40.5309 17.1187 79.584
lradius 18.5962
lwrist -13.3386
lhand -14.7303 24.5396
lfingers 7.12502
lthumb 11.4249 54.2083
rfemur -7.54668 0.263534 15.6376
rtibia 70.1546
rfoot 6.30023 -1.10685
rtoes 10.8895
lfemur -21.0392 -5.19055 -27.3792
ltibia 33.191
lfoot -7.17862 -1.62532
ltoes 1.3297
52
root -8.46182 17.2315 -22.7891 -2.23732 -8.05473 2.52293
lowerback 7.43028 2.67194 -2.3693
upperback -0.306171 3.37594 0.548613
thorax -4.65433 1.73421 1.51135
lowerneck -14.9385 -3.82416 -10.9121
upperneck 23.057 -4.09937 6.07562
head 10.1821 -2.16014 3.44156
rclavicle 1.52505e-015 4.37326e-015
rhumerus -27.2359 -14.0731 -79.193
rradius 34.8739
rwrist 3.48244
rhand -17.0581 13.4781
rfingers 7.12502
rthumb 9.17925 -16.3021
lclavicle 1.52505e-015 4.37326e-015
lhumerus -40.1989 17.1648 79.6018
lradius 18.4437
lwrist -14.0222
lhand -13.9574 25.9474
lfingers 7.12502
lthumb 12.1702 55.5734
rfemur -9.30455 -0.45172 15.1221
rtibia 71.3728
rfoot 4.91408 -2.58002
rtoes 10.8515
lfemur -19.9149 -4.97555 -28.0693
ltibia 32.8434
lfoot -7.76199 -2.02276
ltoes 2.91923
53
root -8.46137 17.2615 -22.5606 -2.12341 -7.7077 2.47045
lowerback 7.4744 2.4518 -2.37593
upperback -0.567595 3.0852 0.658434
thorax -4.945 1.59714 1.65503
lowerneck -14.375 -3.58088 -10.9611
upperneck 23.2789 -3.77689 5.92063
head 10.1213 -2.04582 3.44588
rclavicle 2.81715e-015 -4.77083e-015
rhumerus -27.9484 -14.2489 -79.0032
rradius 34.295
rwrist 4.17273
rhand -17.5353 12.9256
rfingers 7.12502
rthumb 8.7188 -16.8743
lclavicle 2.81715e-015 -4.77083e-015
lhumerus -40.1621 17.3799 79.4727
lradius 18.259
lwrist -14.9061
lhand -13.6779 26.0089
lfingers 7.12502
lthumb 12.4396 55.6187
rfemur -11.2349 -1.0825 15.2259
rtibia 72.3449
rfoot 3.7073 -3.86726
rtoes 11.3343
lfemur -18.9846 -4.71666 -28.1975
ltibia 32.5245
lfoot -8.401 -2.74953
ltoes 5.43279
54
root -8.45592 17.2807 -22.3267 -1.92345 -7.37302 2.34178
lowerback 7.20678 2.18384 -2.18117
upperback -0.736723 2.75402 0.718384
thorax -4.94741 1.43114 1.65461
lowerneck -13.663 -3.5647 -10.8671
upperneck 23.0362 -3.74684 5.49229
head 9.88761 -2.07818 3.28075
rclavicle -9.9998e-015 -5.56597e-015
rhumerus -28.5781 -14.5521 -78.8755
rradius 33.7311
rwrist 4.92641
rhand -17.4877 13.054
rfingers 7.12502
rthumb 8.76475 -16.744
lclavicle -9.9998e-015 -5.56597e-015
lhumerus -39.978 17.5536 79.3593
lradius 18.2022
lwrist -15.639
lhand -13.5527 27.1011
lfingers 7.12502
lthumb 12.5603 56.7036
rfemur -13.1534 -1.6877 15.3936
rtibia 73.0295
rfoot 2.37041 -4.92929
rtoes 11.9225
lfemur -18.1287 -4.58701 -28.2373
ltibia 32.2161
lfoot -9.17841 -3.04388
ltoes 6.38288
55
root -8.44864 17.2915 -22.0962 -1.88126 -6.99723 2.4859
lowerback 6.98226 1.93535 -2.2019
upperback -0.708548 2.42505 0.701948
thorax -4.77534 1.26717 1.69578
lowerneck -13.6053 -3.31727 -10.9417
upperneck 23.253 -3.38439 5.46199
head 9.92118 -1.92516 3.33393
rclavicle -6.60027e-016 3.97569e-016
rhumerus -28.862 -15.1503 -78.7338
rradius 32.9178
rwrist 5.94498
rhand -17.367 14.2187
rfingers 7.12502
rthumb 8.88124 -15.5744
lclavicle -6.60027e-016 3.97569e-016
lhumerus -39.4557 17.2347 79.7078
lradius 18.3397
lwrist -15.8823
lhand -13.072 28.2636
lfingers 7.12502
lthumb 13.0238 57.837
rfemur -14.8548 -2.33672 15.2454
rtibia 73.4379
rfoot 1.0036 -5.51795
rtoes 10.9807
lfemur -17.1011 -4.40051 -28.6138
ltibia 31.9015
lfoot -10.012 -3.20215
ltoes 4.96798
56
root -8.45007 17.3004 -21.8718 -1.87599 -6.68704 2.74132
lowerback 6.94763 1.7971 -2.56498
upperback -0.653187 2.21273 0.741096
thorax -4.70382 1.17074 1.96633
lowerneck -13.708 -3.43867 -11.0115
upperneck 23.2696 -3.46088 5.20072
head 9.95364 -1.99484 3.24138
rclavicle -3.40962e-015 1.03368e-014
rhumerus -29.0924 -15.7389 -78.4622
rradius 32.1489
rwrist 7.05086
rhand -17.2692 14.3422
rfingers 7.12502
rthumb 8.97558 -15.4469
lclavicle -3.40962e-015 1.03368e-014
lhumerus -38.8504 17.0836 80.0268
lradius 18.5261
lwrist -16.8885
lhand -12.8542 26.8562
lfingers 7.12502
lthumb 13.2338 56.4161
rfemur -16.5161 -2.87387 15.0313
rtibia 73.6284
rfoot -0.0595224 -5.80863
rtoes 10.4308
lfemur -16.1023 -4.21738 -29.0613
ltibia 31.6131
lfoot -10.849 -3.35695
ltoes 3.53395
57
root -8.45424 17.3008 -21.6495 -2.02951 -6.35584 3.19727
lowerback 7.12191 1.69726 -3.05048
upperback -0.652459 2.02894 0.657217
thorax -4.80611 1.09228 2.16811
lowerneck -13.8905 -3.48206 -11.0546
upperneck 23.6606 -3.47683 5.11514
head 10.1311 -2.02128 3.22082
rclavicle -1.32518e-014 1.11319e-014
rhumerus -29.6521 -16.0402 -78.3138
rradius 32.0461
rwrist 7.46938
rhand -16.6515 12.6014
rfingers 7.12502
rthumb 9.57161 -17.1612
lclavicle -1.32518e-014 1.11319e-014
lhumerus -38.3294 16.8651 80.1719
lradius 18.6871
lwrist -18.3836
lhand -13.4597 23.009
lfingers 7.12502
lthumb 12.65 52.6059
rfemur -17.9799 -3.39565 14.6108
rtibia 73.6649
rfoot -1.03952 -5.76058
rtoes 9.76895
lfemur -14.9896 -4.0004 -29.7067
ltibia 31.3267
lfoot -11.5787 -3.58412
ltoes 3.54826
58
root -8.4555 17.2998 -21.4244 -2.08639 -5.95224 3.47161
lowerback 7.12704 1.50337 -3.25401
upperback -0.649269 1.74891 0.579665
thorax -4.79214 0.957677 2.23421
lowerneck -14.0199 -3.36146 -11.047
upperneck 23.987 -3.29189 5.08415
head 10.2561 -1.94412 3.2378
rclavicle -9.28619e-015 1.98785e-015
rhumerus -30.17 -16.1665 -78.3106
rradius 31.9746
rwrist 7.52032
rhand -16.1583 12.2084
rfingers 7.12502
rthumb 10.0474 -17.5318
lclavicle -9.28619e-015 1.98785e-015
lhumerus -37.715 16.3586 80.5008
lradius 19.0178
lwrist -18.6518
lhand -8.86379 33.105
lfingers 7.12502
lthumb 17.0775 62.3744
rfemur -19.4317 -3.84947 14.4047
rtibia 73.474
rfoot -2.16542 -5.48471
rtoes 9.98614
lfemur -14.0032 -3.86107 -30.1654
ltibia 31.1476
lfoot -12.2276 -3.89388
ltoes 4.27133
